<svg width="90" height="90" viewBox="0 0 90 90" fill="none" xmlns="http://www.w3.org/2000/svg">
<circle cx="45" cy="45" r="45" fill="url(#paint0_linear_1_4991)"/>
<path fill-rule="evenodd" clip-rule="evenodd" d="M22.5391 33.7208V28.1055C22.5391 25.0362 25.0362 22.5391 28.1055 22.5391H33.7207C34.4218 22.5391 34.9902 21.9707 34.9902 21.2695C34.9902 20.5684 34.4218 20 33.7207 20H28.1055C23.6361 20 20 23.6361 20 28.1055V33.7208C20 34.4219 20.5684 34.9903 21.2695 34.9903C21.9707 34.9903 22.5391 34.4219 22.5391 33.7208ZM33.7207 67.461C34.4218 67.461 34.9902 68.0294 34.9902 68.7306C34.9902 69.4317 34.4218 70.0001 33.7207 70.0001H28.1055C23.6361 70.0001 20 66.3639 20 61.8946V56.2793C20 55.5782 20.5684 55.0098 21.2695 55.0098C21.9707 55.0098 22.5391 55.5782 22.5391 56.2793V61.8946C22.5391 64.9639 25.0362 67.461 28.1055 67.461H33.7207ZM70 56.2793V61.8946C70 66.3639 66.3639 70.0001 61.8945 70.0001H56.2793C55.5782 70.0001 55.0098 69.4317 55.0098 68.7306C55.0098 68.0294 55.5782 67.461 56.2793 67.461H61.8945C64.9638 67.461 67.4609 64.9639 67.4609 61.8946V56.2793C67.4609 55.5782 68.0293 55.0098 68.7305 55.0098C69.4316 55.0098 70 55.5782 70 56.2793ZM70 28.1055V33.7208C70 34.4219 69.4316 34.9903 68.7305 34.9903C68.0293 34.9903 67.4609 34.4219 67.4609 33.7208V28.1055C67.4609 25.0362 64.9638 22.5391 61.8945 22.5391H56.2793C55.5782 22.5391 55.0098 21.9707 55.0098 21.2695C55.0098 20.5684 55.5782 20 56.2793 20H61.8945C66.3639 20 70 23.6361 70 28.1055ZM53.7611 56.9553C54.296 56.4612 54.329 55.6272 53.835 55.0923C53.3409 54.5574 52.5069 54.5244 51.972 55.0184C50.0688 56.7764 47.5928 57.7446 44.9999 57.7446C42.4071 57.7446 39.931 56.7764 38.0279 55.0184C37.4929 54.5244 36.659 54.5575 36.1649 55.0923C35.6708 55.6272 35.7039 56.4612 36.2388 56.9553C38.6306 59.1646 41.742 60.3813 44.9999 60.3813C48.2579 60.3813 51.3693 59.1646 53.7611 56.9553ZM47.6367 38.8477V48.2227C47.6367 50.0805 46.1253 51.5919 44.2676 51.5919H43.1934C42.4652 51.5919 41.875 51.0017 41.875 50.2735C41.875 49.5454 42.4652 48.9552 43.1934 48.9552H44.2676C44.6714 48.9552 45 48.6266 45 48.2227V38.8477C45 38.1195 45.5902 37.5293 46.3184 37.5293C47.0465 37.5293 47.6367 38.1195 47.6367 38.8477ZM56.7188 42.5342V38.7744C56.7188 38.0868 56.1613 37.5293 55.4736 37.5293C54.786 37.5293 54.2285 38.0868 54.2285 38.7744V42.5342C54.2285 43.2219 54.786 43.7793 55.4736 43.7793C56.1613 43.7793 56.7188 43.2219 56.7188 42.5342ZM33.5742 42.5342C33.5742 43.2219 34.1317 43.7793 34.8193 43.7793C35.507 43.7793 36.0645 43.2219 36.0645 42.5342V38.7744C36.0645 38.0868 35.507 37.5293 34.8193 37.5293C34.1317 37.5293 33.5742 38.0868 33.5742 38.7744V42.5342Z" fill="white"/>
<defs>
<linearGradient id="paint0_linear_1_4991" x1="45" y1="-84.7231" x2="50.0462" y2="89.8541" gradientUnits="userSpaceOnUse">
<stop stop-color="#6456EB"/>
<stop offset="1" stop-color="#8639D8"/>
</linearGradient>
</defs>
</svg>
