<svg width="158" height="96" viewBox="0 0 158 96" fill="none" xmlns="http://www.w3.org/2000/svg">
<path d="M12.1322 12.1322C-4.04406 28.3084 -4.04406 54.6124 12.1322 70.7887C16.1645 74.821 20.8533 77.8687 25.8234 79.8849L21.5566 93.7636C21.1815 95.0296 22.3537 96.2486 23.6197 95.8736C31.6374 93.5292 54.0498 86.0271 68.8662 72.6173C69.5227 72.0546 70.1791 71.4451 70.7887 70.7887C86.9649 54.6124 86.9649 28.3084 70.7887 12.1322C54.6124 -4.04406 28.3553 -4.04406 12.1322 12.1322ZM49.1265 55.9721C49.1265 58.3165 47.2042 60.3327 44.8129 60.3327C42.4216 60.3327 40.4992 58.3634 40.4992 55.9721V45.0473H26.5736V55.9721C26.5736 58.3165 24.6981 60.3327 22.3068 60.3327C19.9155 60.3327 17.9463 58.3634 17.9463 55.9721V26.5267C17.9463 24.1823 19.8686 22.1661 22.3068 22.1661C24.6512 22.1661 26.5736 24.1354 26.5736 26.5267V37.686H40.4992V26.5267C40.4992 24.1823 42.3747 22.1661 44.8129 22.1661C47.1573 22.1661 49.1265 24.1354 49.1265 26.5267V55.9721ZM64.9277 56.2066C64.9277 58.551 63.0053 60.4734 60.7547 60.4734C58.5041 60.4734 56.5817 58.5979 56.5817 56.2066V36.9826C56.5817 34.6383 58.5041 32.7159 60.7547 32.7159C63.0053 32.7159 64.9277 34.5914 64.9277 36.9826V56.2066ZM60.7078 30.4184C58.4572 30.4184 56.441 28.5429 56.441 26.3391C56.441 24.0885 58.4103 22.213 60.7078 22.213C62.9584 22.213 64.9746 24.0885 64.9746 26.3391C64.9746 28.5429 62.9584 30.4184 60.7078 30.4184Z" fill="white"/>
<path d="M101.594 32.6221C98.0304 32.6221 95.4516 34.5914 94.7952 36.4669V36.9358C94.7952 34.6852 92.8728 32.8096 90.6222 32.8096C88.4184 32.8096 86.3085 34.6852 86.3085 36.9358V66.475C86.3085 68.7725 88.2309 70.6011 90.4815 70.6011C92.7321 70.6011 94.7483 68.7725 94.7483 66.475V57.3319C95.5454 58.6916 97.8898 60.5671 101.594 60.5671C107.361 60.5671 114.16 56.1597 114.16 46.5477C114.207 37.2171 107.267 32.6221 101.594 32.6221ZM100.047 53.4402C97.7491 53.4402 94.4201 51.7991 94.4201 46.5946C94.4201 41.437 97.7022 39.7959 100.047 39.7959C103.047 39.7959 105.814 42.1403 105.814 46.5946C105.814 51.0489 103.047 53.4402 100.047 53.4402Z" fill="white"/>
<path d="M141.12 32.7628C138.87 32.7628 136.947 34.6383 136.947 36.8889V36.42C136.244 34.5914 133.712 32.5752 130.148 32.5752C124.475 32.5752 117.583 37.1702 117.583 46.5008C117.583 56.1128 124.381 60.5203 130.148 60.5203C133.993 60.5203 136.291 58.5979 137.088 57.2381C137.51 59.1136 139.245 60.4734 141.167 60.4734C143.418 60.4734 145.481 58.6447 145.481 56.3473V36.9358C145.387 34.6852 143.324 32.7628 141.12 32.7628ZM131.649 53.4402C128.648 53.4402 125.882 51.0958 125.882 46.5946C125.882 42.1403 128.648 39.7959 131.649 39.7959C133.946 39.7959 137.275 41.4839 137.275 46.5946C137.275 51.7991 133.993 53.4402 131.649 53.4402Z" fill="white"/>
<path d="M152.983 22.1193C150.732 22.1193 148.81 23.9948 148.81 26.2923V56.3004C148.81 58.5979 150.732 60.4265 152.983 60.4265C155.233 60.4265 157.156 58.5979 157.156 56.3004V26.2923C157.203 24.0417 155.233 22.1193 152.983 22.1193Z" fill="white"/>
<path d="M49.1264 55.972C49.1264 58.3163 47.204 60.3325 44.8128 60.3325C42.4215 60.3325 40.4991 58.3632 40.4991 55.972V45.0471H26.5735V55.972C26.5735 58.3163 24.698 60.3325 22.3067 60.3325C19.9154 60.3325 17.9461 58.3632 17.9461 55.972V26.5265C17.9461 24.1821 19.8685 22.166 22.3067 22.166C24.6511 22.166 26.5735 24.1352 26.5735 26.5265V37.6858H40.4991V26.5265C40.4991 24.1821 42.3746 22.166 44.8128 22.166C47.1571 22.166 49.1264 24.1352 49.1264 26.5265V55.972Z" fill="#8639D8"/>
<path d="M64.9276 56.2064C64.9276 58.5508 63.0052 60.4732 60.7546 60.4732C58.504 60.4732 56.5816 58.5977 56.5816 56.2064V36.9825C56.5816 34.6381 58.504 32.7157 60.7546 32.7157C63.0052 32.7157 64.9276 34.5912 64.9276 36.9825V56.2064Z" fill="#8639D8"/>
<path d="M60.7077 30.4182C58.4571 30.4182 56.4409 28.5427 56.4409 26.339C56.4409 24.0883 58.4102 22.2128 60.7077 22.2128C62.9583 22.2128 64.9745 24.0883 64.9745 26.339C64.9745 28.5427 62.9583 30.4182 60.7077 30.4182Z" fill="#8639D8"/>
</svg>
