<svg width="13" height="13" viewBox="0 0 13 13" fill="none" xmlns="http://www.w3.org/2000/svg">
<path d="M11.8724 12.9243C11.5906 12.9243 11.3088 12.8116 11.1022 12.6238L9.84355 11.4591C9.24242 10.8955 8.45343 10.595 7.62687 10.595H2.06639C0.920484 10.595 0 9.65569 0 8.52857V2.06639C0 0.920484 0.93927 0 2.06639 0H10.9331C12.079 0 12.9995 0.939269 12.9995 2.06639V11.7784C13.0183 12.4171 12.5111 12.9243 11.8724 12.9243ZM2.06639 1.31498C1.65311 1.31498 1.31498 1.65311 1.31498 2.06639V8.50978C1.31498 8.92306 1.65311 9.2612 2.06639 9.2612H7.60809C8.77278 9.2612 9.88112 9.69326 10.7265 10.4822L11.7033 11.3839V2.06639C11.7033 1.65311 11.3652 1.31498 10.9519 1.31498H2.06639Z" fill="#5F5E88"/>
</svg>
