<svg width="119" height="137" viewBox="0 0 119 137" fill="none" xmlns="http://www.w3.org/2000/svg">
<path d="M36.5007 114.514C31.5897 111.383 26.6327 108.782 22.3049 105.367C9.44805 95.2 2.00483 81.8098 0.328183 65.4654C-2.79874 34.8906 16.6994 7.85332 46.8483 1.34625C71.9481 -4.07503 97.493 7.16655 110.38 29.8492C124.711 55.0526 118.917 85.9957 96.8062 104.707C83.3547 116.095 67.981 124.029 51.7171 130.413C46.0618 132.635 40.2415 134.446 34.4903 136.429C33.3393 136.832 31.9581 137.112 31.2713 135.915C30.7907 134.955 30.6748 133.854 30.9452 132.815C32.7484 126.569 34.7051 120.373 36.5007 114.514ZM37.9548 53.6829C37.9548 48.4496 37.9855 43.3736 37.9548 38.2938C37.9241 34.4111 35.3344 31.664 31.8161 31.6678C28.1751 31.6678 25.5891 34.4417 25.5891 38.3744C25.5891 52.0408 25.5891 65.7097 25.5891 79.3812C25.5695 80.0878 25.6456 80.7937 25.8155 81.4799C26.2082 82.921 27.1069 84.1725 28.3469 85.0053C29.587 85.8381 31.0854 86.1965 32.5681 86.0149C35.6106 85.612 37.8896 83.0261 37.9395 79.6996C38.0086 75.203 37.9395 70.7064 37.9395 66.2097C37.9395 65.5882 37.997 64.9705 38.0239 64.3604H57.5911V66.3517C57.5911 70.6718 57.5643 74.992 57.5911 79.3121C57.6257 83.2524 60.2768 86.0954 63.8373 86.0647C67.3978 86.034 69.9761 83.1642 69.9761 79.2315C69.9761 65.624 69.9761 52.0152 69.9761 38.4051C69.9761 34.4955 67.5052 31.7369 63.9754 31.6678C60.3114 31.6026 57.6487 34.3075 57.6065 38.2593C57.5566 42.7559 57.6065 47.2564 57.6065 51.753V53.6714L37.9548 53.6829ZM92.4132 66.532C92.4132 61.974 92.4132 57.416 92.4132 52.858C92.4132 49.3819 89.9231 46.7729 86.6581 46.6924C85.8559 46.6598 85.0554 46.7898 84.3047 47.0747C83.5541 47.3596 82.8689 47.7935 82.2904 48.3501C81.7118 48.9068 81.2519 49.5748 80.9383 50.3139C80.6247 51.053 80.4639 51.8479 80.4656 52.6508C80.3966 61.8282 80.3966 71.0044 80.4656 80.1792C80.4522 80.9829 80.6002 81.7812 80.9006 82.5268C81.2011 83.2723 81.6481 83.9501 82.215 84.5199C82.782 85.0897 83.4575 85.5401 84.2015 85.8443C84.9455 86.1485 85.743 86.3004 86.5468 86.2911C89.8886 86.2489 92.4208 83.5785 92.4362 80.0296C92.4247 75.533 92.4132 71.0325 92.4132 66.532ZM86.4701 31.7177C83.136 31.7177 80.362 34.3612 80.3313 37.5687C80.3007 40.7762 83.1398 43.4734 86.4279 43.4734C89.7159 43.4734 92.5666 40.7877 92.5666 37.6109C92.5666 34.4341 89.7888 31.7254 86.4701 31.7177Z" fill="white"/>
<path d="M37.9552 53.6829H57.5992V51.7646C57.5992 47.2679 57.5608 42.7675 57.5992 38.2709C57.6414 34.319 60.3041 31.6142 63.9681 31.6794C67.4979 31.7484 69.9649 34.507 69.9688 38.4166C69.9688 52.0267 69.9688 65.6356 69.9688 79.2431C69.9688 83.1757 67.3867 86.0495 63.83 86.0763C60.2734 86.1032 57.6184 83.264 57.5839 79.3237C57.5493 75.0035 57.5839 70.6834 57.5839 66.3633V64.372H38.0166C37.9898 64.9821 37.936 65.5998 37.9322 66.2213C37.9322 70.7179 37.9821 75.2146 37.9322 79.7112C37.8785 83.0376 35.5995 85.6236 32.5608 86.0264C31.0782 86.2081 29.5797 85.8497 28.3396 85.0169C27.0996 84.1841 26.201 82.9326 25.8082 81.4914C25.6383 80.8053 25.5622 80.0993 25.5818 79.3927C25.5665 65.7238 25.5665 52.0549 25.5818 38.386C25.5818 34.4533 28.1678 31.6832 31.8088 31.6794C35.3309 31.6794 37.9207 34.4226 37.9476 38.3054C37.9936 43.3737 37.9552 48.4497 37.9552 53.6829Z" fill="#8639D8"/>
<path d="M92.413 66.5321C92.413 71.0325 92.413 75.533 92.413 80.0296C92.413 83.5786 89.8654 86.249 86.5236 86.2912C85.7202 86.301 84.9229 86.1497 84.179 85.8462C83.435 85.5426 82.7594 85.0931 82.1921 84.524C81.6249 83.9549 81.1774 83.2779 80.8762 82.533C80.5751 81.7881 80.4263 80.9904 80.4386 80.1869C80.3772 71.0146 80.3772 61.8385 80.4386 52.6585C80.4369 51.8556 80.5977 51.0607 80.9113 50.3216C81.2249 49.5825 81.6848 48.9145 82.2633 48.3579C82.8419 47.8012 83.5271 47.3673 84.2777 47.0824C85.0284 46.7975 85.8289 46.6675 86.6311 46.7001C89.9115 46.7807 92.3861 49.3858 92.3861 52.8657C92.4322 57.416 92.413 61.9741 92.413 66.5321Z" fill="#8639D8"/>
<path d="M86.4701 31.7177C89.785 31.7177 92.5743 34.4034 92.5743 37.6109C92.5743 40.8184 89.7466 43.4734 86.4355 43.4734C83.1245 43.4734 80.316 40.734 80.339 37.5687C80.362 34.4034 83.136 31.7101 86.4701 31.7177Z" fill="#8639D8"/>
</svg>
