<svg width="20" height="20" viewBox="0 0 20 20" fill="none" xmlns="http://www.w3.org/2000/svg">
<path d="M10.0002 0C7.34791 0 4.80443 1.05356 2.92904 2.92871C1.05365 4.8041 0 7.34759 0 9.99984C0 12.6521 1.05356 15.1956 2.92904 17.071C4.80443 18.9461 7.34791 19.9997 10.0002 19.9997C12.6521 19.9997 15.1956 18.9461 17.071 17.071C18.9464 15.1956 20 12.6521 20 9.99984C20 7.34759 18.9464 4.8041 17.071 2.92871C15.1956 1.05356 12.6521 0 10.0002 0ZM10.0002 18.1817C7.83021 18.1817 5.74898 17.3196 4.21474 15.7853C2.6805 14.2508 1.81841 12.1699 1.81841 9.99992C1.81841 7.82997 2.6805 5.74906 4.21474 4.2145C5.74898 2.68026 7.83021 1.81817 10.0002 1.81817C12.1701 1.81817 14.251 2.68026 15.7853 4.2145C17.3198 5.74906 18.1816 7.82997 18.1816 9.99992C18.1816 12.1699 17.3198 14.2508 15.7853 15.7853C14.251 17.3196 12.1701 18.1817 10.0002 18.1817Z" fill="#8378FC"/>
<path d="M11.5407 4.67287C10.9418 4.4319 10.2823 4.38561 9.65543 4.54065C9.0289 4.6957 8.46704 5.04415 8.04984 5.53659C7.77463 5.91738 7.83487 6.4447 8.18871 6.75379C8.54224 7.06261 9.07304 7.05119 9.41321 6.72747C9.58474 6.52455 9.81556 6.38029 10.073 6.31497C10.3308 6.24997 10.6022 6.2671 10.8495 6.3638C11.2224 6.50109 11.4494 6.87935 11.3952 7.2728C11.3543 7.92278 11.0543 8.21387 10.4862 8.70907C9.918 9.20465 9.09081 9.92724 9.07271 11.3046V11.5865H9.07239C9.07239 12.0887 9.4795 12.4955 9.9814 12.4955C10.4836 12.4955 10.8907 12.0887 10.8907 11.5865V11.3182C10.8907 10.7865 11.1406 10.5547 11.6862 10.0772L11.6859 10.0776C12.5633 9.45041 13.1216 8.47003 13.2132 7.39552C13.2671 6.82195 13.1333 6.24618 12.8314 5.75503C12.5299 5.2639 12.0768 4.88407 11.5407 4.67287Z" fill="#8378FC"/>
<path d="M10.0001 13.7499C9.49792 13.7499 9.09082 14.157 9.09082 14.6589C9.09082 15.1611 9.49792 15.5682 10.0001 15.5682C10.5021 15.5682 10.9091 15.1611 10.9091 14.6589V14.6408C10.8993 14.1459 10.4951 13.7499 10.0001 13.7499Z" fill="#8378FC"/>
</svg>
